<svg width="54" height="25" viewBox="0 0 54 25" fill="none" xmlns="http://www.w3.org/2000/svg">
<path d="M53.3813 11.0729C53.3807 11.0723 53.3801 11.0716 53.3794 11.071L42.3575 0.587091C41.5318 -0.198293 40.1962 -0.19537 39.3743 0.593945C38.5525 1.38316 38.5557 2.65967 39.3814 3.44516L46.7815 10.4839H2.10937C0.944367 10.4839 0 11.3865 0 12.5C0 13.6135 0.944367 14.5161 2.10937 14.5161H46.7814L39.3815 21.5548C38.5558 22.3403 38.5526 23.6168 39.3744 24.4061C40.1963 25.1955 41.532 25.1982 42.3576 24.4129L53.3795 13.929C53.3801 13.9284 53.3807 13.9277 53.3814 13.9271C54.2075 13.139 54.2049 11.8584 53.3813 11.0729Z" fill="#BFBEFA"/>
</svg>
