<svg width="484" height="549" viewBox="0 0 484 549" fill="none" xmlns="http://www.w3.org/2000/svg">
<path d="M123.834 247.216C124.353 243.313 124.997 239.398 125.918 235.459C129.44 220.382 133.519 205.212 139.101 190.512C144.313 181.386 150.673 173.351 158.055 166.275C161.535 167.048 165.433 165.692 166.567 161.294C166.862 160.149 167.219 159.039 167.603 157.944C183.683 145.45 203.303 136.224 224.983 128.701C275.008 111.347 328.206 100.851 372.809 136.248C409.456 165.33 428.064 211.938 422.885 257.758C412.951 345.653 343.63 397.218 264.436 419.642C262.934 419.463 261.389 419.344 259.747 419.374C243.354 419.664 227.794 418.12 211.888 414.263C210.92 414.031 209.948 413.903 208.975 413.765C208.42 413.223 207.861 412.682 207.231 412.111C190.445 396.969 172.616 382.911 159.495 363.86C150.84 351.289 143.191 338.266 137.123 324.865C128.286 299.71 122.694 273.565 123.834 247.216ZM444.152 122.768C444.574 122.756 444.979 122.703 445.37 122.615C448.011 123.602 450.686 124.116 453.337 124.252C463.193 130.127 470.571 138.636 476.781 148.269C466.743 138.853 455.789 130.407 444.152 122.768ZM459.179 152.213C470.628 162.01 480.905 173.059 489.691 185.569C504.468 267.199 477.12 353.643 409.367 407.406C405.639 410.364 401.78 413.182 397.855 415.923C434.573 385.171 462.629 344.789 476.004 294.111C489.103 244.468 481.465 194.013 459.179 152.213ZM585.102 256.73C585.175 248.066 585.244 239.403 585.322 230.759C586.206 215.565 581.219 201.413 575.807 187.73C563.554 156.758 552.99 124.837 530.048 99.1535C485.393 49.1645 428.399 19.2523 363.557 5.4414C331.018 -1.48912 295.553 -2.0669 263.493 5.25716C221.295 14.8942 181.813 34.644 143.982 56.4497C96.8323 83.6299 56.7093 119.339 31.4879 166.359C9.48665 207.375 -3.03233 253.142 0.63252 301.177C0.677509 304.229 0.722478 307.284 0.764006 310.334C-2.81087 393.89 41.811 450.677 109.311 491.701C160.893 523.051 217.952 543.341 279.019 547.961C328.249 551.685 376.334 545.658 422.454 525.706C474.767 503.074 514.586 465.797 546.187 421.036C567.543 390.784 586.24 357.143 585.576 317.601C585.714 299.706 585.856 281.813 586 263.913C585.704 261.513 585.405 259.12 585.102 256.73Z" fill="#FFEF00"/>
</svg>
