<svg width="256" height="106" viewBox="0 0 256 106" fill="none" xmlns="http://www.w3.org/2000/svg">
<path d="M62.7334 102.653C68.4628 105.479 74.995 106.613 81.6383 105.679C90.3166 104.459 97.9343 99.4529 103.483 92.7064C104.618 91.3265 105.672 89.9132 106.686 88.4732C111.422 84.34 115.621 79.4295 119.455 74.397C123.153 69.5458 128.013 61.4207 134.203 59.6234C137.372 58.7041 140.615 59.8154 142.626 62.072C143.064 65.3659 143.487 68.6605 144.093 71.9191C144.004 74.5976 144.673 76.9722 145.855 78.9748C146.431 80.7508 147.091 82.5107 147.943 84.2334C153.035 94.5264 163.901 104.606 176.907 103.746C187.766 103.026 194.824 96.473 199.979 87.5733C205.858 77.4296 209.058 66.0325 213.874 55.3768C215.4 51.9996 217.262 49.179 221.247 48.8057C223.015 48.6384 224.609 48.819 226.034 49.3717C226.059 49.9657 226.072 50.5596 226.041 51.153C225.873 58.2161 232.283 64.9699 239.351 64.6486C244.909 64.3973 249.56 61.1387 251.581 56.2988C255.226 53.0269 256.639 48.0584 255.735 42.6492C254.921 37.776 254.107 32.9028 253.293 28.0296C252.525 23.4358 248.426 19.9159 243.902 18.6326C241.856 17.4713 239.709 16.418 237.385 15.5473C230.038 12.7941 222.444 13.7634 215.154 14.8167C205.896 16.154 197.285 19.5832 190.755 27.2363C185.533 33.3555 182.355 40.4166 179.978 47.9104C179.253 50.1983 178.563 52.3316 176.314 55.5222C176.425 46.8058 174.197 39.8773 172.1 32.8535C171.065 29.3896 169.309 26.5137 167.73 23.4418C164.293 16.7486 157.1 9.18348 150.572 5.50358C129.122 -6.58541 108.974 2.64367 96.5713 19.5825C88.9924 29.9309 86.1198 41.8852 83.5398 54.0969C82.5779 58.6501 82.1321 63.4033 79.6711 67.5725C78.9853 68.7351 78.3449 69.5245 77.0102 69.3271C76.93 69.3145 76.8728 69.2878 76.8011 69.2711C76.116 67.6538 75.6637 65.7332 75.2948 63.9832C74.7484 56.2475 74.4296 48.4797 73.3861 40.8132C71.2677 25.2357 63.4606 11.7401 47.7642 6.73821C33.2185 2.103 21.135 6.28957 11.6231 18.9472C10.9031 19.9052 10.1483 20.8545 9.45071 21.8524C7.76753 27.8723 5.6721 33.7601 3.52209 39.632C3.16771 42.3559 2.99673 45.0571 3.04146 47.6411C2.54504 48.4704 2.02824 49.2823 1.58707 50.1583C-6.15756 65.5732 16.5359 79.2041 24.5737 63.7819C26.0833 60.8847 27.9427 58.5834 31.553 59.2907C35.6736 60.0987 39.4377 58.9994 42.3675 56.8535C42.7298 57.0821 43.0178 57.3675 43.3386 57.6268C43.4169 62.4686 43.0086 67.3285 43.5714 72.141C44.3801 79.0615 46.0994 86.1066 50.1549 91.8598C53.4588 96.5463 57.7995 100.226 62.7334 102.653Z" fill="#C0BFFF"/>
</svg>
