<svg width="202" height="189" viewBox="0 0 202 189" fill="none" xmlns="http://www.w3.org/2000/svg">
<path d="M42.6869 85.1072C42.8658 83.7635 43.0877 82.4157 43.405 81.0597C44.6194 75.8694 46.0253 70.6467 47.9495 65.5862C49.746 62.4443 51.9386 59.6782 54.4831 57.2422C55.6826 57.5083 57.0265 57.0414 57.4171 55.5274C57.5191 55.1333 57.642 54.751 57.7744 54.374C63.3174 50.0728 70.0807 46.8968 77.5538 44.307C94.7981 38.3326 113.136 34.7191 128.511 46.9051C141.143 56.9169 147.558 72.9624 145.773 88.7365C142.348 118.995 118.453 136.747 91.1537 144.467C90.636 144.405 90.1034 144.364 89.5373 144.375C83.8864 144.475 78.523 143.943 73.0397 142.615C72.7063 142.535 72.3711 142.491 72.0359 142.444C71.8444 142.257 71.6518 142.071 71.4347 141.874C65.6484 136.661 59.5024 131.822 54.9794 125.263C51.9959 120.936 49.3595 116.452 47.2677 111.839C44.2216 103.179 42.2938 94.1782 42.6869 85.1072ZM153.104 42.2644C153.249 42.2603 153.389 42.2421 153.524 42.2116C154.434 42.5516 155.356 42.7284 156.27 42.7754C159.667 44.7979 162.21 47.7272 164.351 51.0436C160.891 47.8018 157.115 44.8942 153.104 42.2644ZM158.283 52.4014C162.23 55.7741 165.773 59.5778 168.801 63.8843C173.895 91.9865 164.468 121.746 141.113 140.254C139.828 141.273 138.497 142.243 137.145 143.187C149.802 132.6 159.473 118.698 164.083 101.251C168.599 84.1611 165.966 66.7913 158.283 52.4014ZM201.69 88.3824C201.715 85.3996 201.739 82.4174 201.766 79.4417C202.071 74.2109 200.352 69.3389 198.486 64.6284C194.263 53.9658 190.621 42.9768 182.713 34.1348C167.32 16.9255 147.673 6.62783 125.322 1.87327C114.105 -0.512646 101.88 -0.711555 90.8287 1.80984C76.2827 5.12752 62.6726 11.9266 49.6321 19.4335C33.3791 28.7906 19.5482 41.084 10.8542 57.271C3.27014 71.3914 -1.04527 87.1474 0.218036 103.684C0.233544 104.734 0.249045 105.786 0.26336 106.836C-0.968934 135.601 14.4127 155.151 37.6807 169.274C55.4613 180.067 75.1303 187.052 96.1807 188.642C113.151 189.924 129.726 187.849 145.624 180.981C163.657 173.189 177.383 160.356 188.276 144.947C195.638 134.532 202.083 122.951 201.854 109.338C201.902 103.178 201.95 97.0176 202 90.8554C201.898 90.0291 201.795 89.2051 201.69 88.3824Z" fill="#C0BFFF"/>
</svg>
