<svg width="92" height="224" viewBox="0 0 92 224" fill="none" xmlns="http://www.w3.org/2000/svg">
<path d="M89.0949 169.108C91.5482 164.095 92.5318 158.379 91.7218 152.566C90.6629 144.973 86.3176 138.307 80.4622 133.452C79.2645 132.459 78.0379 131.537 76.7881 130.65C73.2008 126.506 68.9388 122.832 64.571 119.477C60.3605 116.242 53.3085 111.989 51.7486 106.572C50.9507 103.799 51.9153 100.962 53.8738 99.2027C56.7327 98.8189 59.5921 98.4485 62.4203 97.9186C64.7451 97.9968 66.8061 97.4112 68.5442 96.3768C70.0856 95.8728 71.6131 95.2958 73.1082 94.5502C82.0418 90.0944 90.7902 80.5863 90.0438 69.2062C89.4189 59.7044 83.7313 53.5292 76.007 49.018C67.203 43.874 57.3113 41.0741 48.0629 36.8606C45.1317 35.5251 42.6837 33.8959 42.3597 30.4087C42.2144 28.8616 42.3712 27.467 42.8509 26.2205C43.3664 26.1982 43.882 26.1867 44.3969 26.2143C50.5272 26.3609 56.389 20.752 56.1101 14.5678C55.892 9.70458 53.0638 5.6352 48.8631 3.86634C46.0234 0.677603 41.7111 -0.558917 37.0163 0.231938C32.7867 0.943787 28.5572 1.65641 24.3276 2.36901C20.3405 3.04097 17.2855 6.62709 16.1717 10.586C15.1637 12.3763 14.2496 14.2549 13.4939 16.2884C11.1043 22.7165 11.9456 29.3617 12.8598 35.7399C14.0204 43.841 16.9967 51.3752 23.6391 57.0892C28.95 61.6587 35.0785 64.4392 41.5826 66.5189C43.5683 67.154 45.4199 67.7569 48.1891 69.7251C40.6239 69.6278 34.6105 71.5776 28.5143 73.4128C25.5079 74.3178 23.0119 75.855 20.3457 77.2363C14.5365 80.244 7.97056 86.5379 4.77669 92.2495C-5.71564 111.018 2.29451 128.647 16.9962 139.5C25.9778 146.132 36.3532 148.645 46.952 150.903C50.9039 151.744 55.0293 152.134 58.6478 154.288C59.6569 154.888 60.342 155.448 60.1707 156.616C60.1597 156.686 60.1366 156.736 60.1221 156.799C58.7184 157.398 57.0515 157.794 55.5326 158.117C48.8186 158.595 42.0767 158.874 35.4228 159.787C21.9027 161.641 10.1895 168.472 5.84825 182.206C1.82525 194.934 5.45887 205.507 16.4447 213.83C17.2762 214.46 18.1001 215.12 18.9663 215.731C24.191 217.203 29.3012 219.037 34.3976 220.918C36.7617 221.228 39.1062 221.378 41.3488 221.339C42.0686 221.773 42.7734 222.225 43.5336 222.611C56.9126 229.388 68.7432 209.531 55.3579 202.498C52.8433 201.177 50.846 199.55 51.4599 196.391C52.1611 192.786 51.207 189.492 49.3445 186.928C49.543 186.611 49.7906 186.359 50.0157 186.079C54.2181 186.01 58.436 186.368 62.613 185.875C68.6194 185.167 74.7341 183.663 79.7274 180.115C83.7949 177.224 86.9888 173.425 89.0949 169.108Z" fill="#FFEF00"/>
</svg>
