<svg width="120" height="291" viewBox="0 0 120 291" fill="none" xmlns="http://www.w3.org/2000/svg">
<path d="M116.211 219.69C119.411 213.177 120.694 205.752 119.637 198.2C118.256 188.335 112.588 179.676 104.951 173.369C103.388 172.078 101.789 170.881 100.158 169.728C95.4793 164.344 89.9202 159.572 84.223 155.213C78.7311 151.01 69.5328 145.486 67.4982 138.449C66.4574 134.847 67.7155 131.16 70.2702 128.875C73.9991 128.376 77.7288 127.895 81.4178 127.207C84.4502 127.308 87.1384 126.548 89.4055 125.204C91.416 124.549 93.4084 123.799 95.3585 122.831C107.011 117.042 118.422 104.69 117.448 89.9062C116.633 77.5624 109.215 69.5402 99.1395 63.6797C87.6561 56.997 74.7538 53.3597 62.6908 47.8859C58.8675 46.1509 55.6744 44.0343 55.2517 39.5042C55.0623 37.4943 55.2668 35.6825 55.8925 34.0632C56.5649 34.0343 57.2373 34.0194 57.909 34.0552C65.905 34.2456 73.5508 26.9591 73.1871 18.9252C72.9026 12.6073 69.2136 7.32073 63.7345 5.02279C60.0305 0.88028 54.4057 -0.726093 48.2821 0.301312C42.7653 1.22608 37.2485 2.15185 31.7317 3.07759C26.5311 3.95054 22.5463 8.6093 21.0935 13.7523C19.7788 16.0781 18.5864 18.5186 17.6007 21.1604C14.4838 29.5111 15.5812 38.144 16.7736 46.43C18.2875 56.9542 22.1697 66.7419 30.8336 74.165C37.7609 80.1012 45.7546 83.7134 54.2382 86.4152C56.8283 87.2403 59.2433 88.0235 62.8553 90.5803C52.9877 90.454 45.1441 92.9869 37.1926 95.3711C33.2712 96.5467 30.0155 98.5437 26.5378 100.338C18.9607 104.246 10.3964 112.422 6.23047 119.842C-7.45518 144.225 2.99284 167.127 22.1689 181.226C33.884 189.841 47.4172 193.106 61.2418 196.039C66.3963 197.132 71.7773 197.639 76.4972 200.436C77.8134 201.216 78.7069 201.944 78.4835 203.461C78.4692 203.552 78.439 203.617 78.4201 203.699C76.5892 204.477 74.4149 204.992 72.4339 205.411C63.6764 206.032 54.8827 206.395 46.2037 207.581C28.5687 209.989 13.2906 218.863 7.62816 236.706C2.38076 253.24 7.12027 266.975 21.4497 277.788C22.5342 278.606 23.6088 279.464 24.7386 280.257C31.5535 282.171 38.219 284.552 44.8664 286.996C47.9501 287.399 51.0081 287.594 53.9333 287.543C54.8721 288.107 55.7913 288.694 56.783 289.196C74.2338 297.999 89.6651 272.203 72.2059 263.067C68.926 261.351 66.3208 259.237 67.1216 255.133C68.0363 250.449 66.7918 246.17 64.3624 242.84C64.6213 242.428 64.9443 242.101 65.2379 241.736C70.7192 241.647 76.2209 242.111 81.6691 241.472C89.5036 240.552 97.4792 238.598 103.992 233.988C109.298 230.232 113.464 225.298 116.211 219.69Z" fill="#DCABFF"/>
</svg>
